<?xml version="1.0" encoding="UTF-8" standalone="no"?>
<svg
   xmlns:dc="http://purl.org/dc/elements/1.1/"
   xmlns:cc="http://creativecommons.org/ns#"
   xmlns:rdf="http://www.w3.org/1999/02/22-rdf-syntax-ns#"
   xmlns:svg="http://www.w3.org/2000/svg"
   xmlns="http://www.w3.org/2000/svg"
   viewBox="0 0 514.77332 264.85333"
   height="264.85333"
   width="514.77332"
   xml:space="preserve"
   id="svg2"
   version="1.1"><metadata
     id="metadata8"><rdf:RDF><cc:Work
         rdf:about=""><dc:format>image/svg+xml</dc:format><dc:type
           rdf:resource="http://purl.org/dc/dcmitype/StillImage" /></cc:Work></rdf:RDF></metadata><defs
     id="defs6"><clipPath
       id="clipPath20"
       clipPathUnits="userSpaceOnUse"><path
         id="path18"
         d="M 0,0 H 3860.76 V 1986 H 0 Z" /></clipPath></defs><g
     transform="matrix(1.3333333,0,0,-1.3333333,0,264.85333)"
     id="g10"><g
       transform="scale(0.1)"
       id="g12"><g
         id="g14"><g
           clip-path="url(#clipPath20)"
           id="g16"><path
             id="path22"
             style="fill:#213462;fill-opacity:1;fill-rule:nonzero;stroke:none"
             d="M 1525.8,705.379 1644,824.641 c 18.46,18.449 29.11,34.078 31.96,46.847 2.13,9.934 -7.46,15.961 -28.77,18.102 l -14.9,1.058 c -23.42,2.84 -34.44,16.332 -33.01,40.473 v 8.52 h 242.79 v -8.52 c 1.41,-21.301 -9.59,-34.43 -33.01,-39.391 l -44.72,-5.332 c -11.37,-9.937 -31.25,-29.109 -59.63,-57.5 -29.12,-28.398 -47.93,-48.289 -56.45,-59.628 l 172.5,-267.29 25.57,-4.261 c 21.29,-4.25 31.23,-15.617 29.82,-34.071 v -8.519 h -193.81 l -155.46,251.312 v 1.071 z M 1289.41,453 v 8.512 c -1.44,18.457 7.8,29.828 27.68,34.09 l 39.39,5.328 v 645.29 l -37.26,12.79 c -19.88,7.08 -29.12,20.57 -27.7,40.45 v 12.79 h 202.35 V 498.801 l 25.54,-4.262 c 21.29,-4.98 30.51,-16.699 27.7,-35.16 v -8.508 h -257.7 V 453" /><path
             id="path24"
             style="fill:#213462;fill-opacity:1;fill-rule:nonzero;stroke:none"
             d="m 1990.82,1121.74 c 4.26,44.01 29.1,68.15 74.53,72.41 44.73,-4.26 69.22,-28.4 73.48,-72.41 -4.26,-44.03 -28.75,-68.15 -73.48,-72.42 -45.43,4.27 -70.27,28.39 -74.53,72.42 z M 1929.06,453 l 2.13,8.512 c -0.72,18.457 9.59,29.828 30.88,34.09 l 38.32,4.25 v 378.019 l -40.45,8.527 c -21.31,5.684 -30.88,19.172 -28.75,40.461 v 8.52 h 204.44 V 498.801 l 44.74,-4.262 c 20.57,-4.258 29.43,-16.348 26.62,-36.207 v -8.523 h -279 v 1.062 l 1.07,2.129" /><path
             id="path26"
             style="fill:#213462;fill-opacity:1;fill-rule:nonzero;stroke:none"
             d="m 2273.36,453 v 8.512 c -2.13,19.879 7.46,31.59 28.75,35.148 l 40.47,4.27 v 378 l -38.34,8.519 c -21.31,5.68 -31.25,19.18 -29.83,40.473 v 8.539 h 191.68 c 8.52,-52.563 12.78,-105.082 12.78,-157.621 11.34,50.41 31.23,91.219 59.65,122.469 28.37,31.222 63.16,47.55 104.33,48.98 h 4.28 V 909.82 c 0.68,-45.441 -6.04,-75.238 -20.24,-89.441 -14.22,-14.219 -39.04,-20.609 -74.55,-19.16 -29.8,1.41 -49.68,-4.989 -59.63,-19.18 -10.64,-14.207 -15.62,-45.43 -14.9,-93.699 V 505.172 l 74.53,-6.371 c 21.31,-2.852 30.53,-14.91 27.7,-36.211 v -8.52 h -307.75 v 1.059 l 1.07,-2.129" /><path
             id="path28"
             style="fill:#213462;fill-opacity:1;fill-rule:nonzero;stroke:none"
             d="m 2959.69,474.289 c 36.89,-1.43 63.88,14.211 80.91,46.859 17.06,32.653 25.57,91.571 25.57,176.774 0,85.18 -8.51,143.387 -25.57,174.637 -17.03,31.242 -44.02,46.132 -80.91,44.73 -37.66,1.402 -64.96,-13.488 -81.99,-44.73 -17.06,-31.25 -25.57,-89.457 -25.57,-174.637 0,-85.203 7.81,-144.121 23.42,-176.774 16.33,-32.648 44.37,-48.289 84.14,-46.859 v 1.07 z m -185.3,409.981 c 51.12,44 114.28,66.359 189.56,67.089 73.82,0 134.15,-20.949 181.01,-62.839 46.86,-42.59 70.98,-104.711 72.42,-186.34 -1.44,-82.36 -26.99,-146.602 -76.68,-192.739 -49.68,-45.453 -111.46,-68.492 -185.27,-69.222 -75.27,0 -137.03,21.652 -185.29,64.953 -48.29,43.297 -73.13,106.129 -74.55,188.488 1.42,82.34 27.69,145.879 78.8,190.61" /><path
             id="path30"
             style="fill:#213462;fill-opacity:1;fill-rule:nonzero;stroke:none"
             d="m 3261.13,453 v 8.512 c -1.44,18.457 8.85,29.828 30.86,34.09 l 38.34,4.25 v 378.019 l -38.34,8.527 c -21.29,5.684 -31.25,19.172 -29.8,40.461 v 8.52 h 191.68 c 5.66,-35.508 9.57,-75.25 11.7,-119.258 11.34,35.488 31.95,66.367 61.77,92.641 30.51,26.269 67.07,40.097 109.67,41.527 99.4,0 149.79,-53.949 151.21,-161.859 v -287.5 l 41.53,-4.27 c 22.01,-4.262 32.3,-15.621 30.88,-34.07 v -8.52 h -268.35 v 8.52 c -1.42,18.449 8.89,30.148 30.88,35.129 l 29.83,4.261 v 266.211 c -1.43,72.418 -25.92,106.84 -73.48,103.297 -26.97,0 -51.84,-12.769 -74.53,-38.34 -22.01,-25.539 -33.73,-64.609 -35.16,-117.128 V 500.93 l 36.21,-4.27 c 22.72,-4.262 32.64,-15.621 29.83,-34.07 v -8.52 h -272.62 v 1.059 L 3261.13,453" /><path
             id="path32"
             style="fill:#213462;fill-opacity:1;fill-rule:nonzero;stroke:none"
             d="m 342.754,635.34 c -4.883,4.59 -9.719,8.941 -14.5,13.16 -0.051,0.051 -0.109,0.102 -0.149,0.141 173.926,-0.922 200.274,-34.789 201.329,-36.262 61.328,-85.219 327.324,-479.52 329.043,-482.168 l 5.109,-7.879 L 927.5,83.1016 726.199,83.7188 C 677.188,160.809 504.629,416.602 405.234,555.988 c -11.98,16.793 -22.675,31.352 -31.808,43.25 -13.457,17.543 -23.485,29.352 -30.672,36.102 z M 170.02,588.461 c 0,6.098 0.507,12.309 1.503,18.461 0.586,3.578 1.317,7.078 2.063,9.906 l 3.23,9.91 c 3.672,9.25 7.383,13.364 9.219,14.801 28.582,-9.969 55.684,-27.07 87.07,-54.789 12.403,-12.449 25.575,-27.07 38.926,-43.121 3.731,-4.938 7.723,-10.359 11.953,-16.168 V 134.969 l 81.25,-52.0198 H 90.3125 L 170.02,135.289 Z m 426.652,72.301 c -21.059,29.25 -61.586,48.808 -123.899,59.797 -41.144,7.25 -92.265,10.921 -151.953,10.921 -38.937,0 -73.586,-1.589 -95.793,-2.921 -13.269,-0.778 -23.355,-1.547 -29.461,-2.059 l -8.398,-0.73 c -2.363,-0.239 -4.57,-0.598 -6.641,-1.051 -6.015,-0.528 -11.797,-1.61 -17.273,-3.25 l -1.164,-0.379 c -28.086,-8.91 -49.793,-31.461 -62.9298,-65.57 l -4.6016,-13.872 -0.5352,-1.789 C 92.3047,633.57 90.8594,626.93 89.7656,620.141 88.0664,609.609 87.207,598.949 87.207,588.461 V 179.969 L 0,122.73 V 0.128906 H 496.211 V 123.02 l -89.395,57.269 v 227.582 c 20.86,-30.652 43.711,-63.84 67.403,-98.242 C 539.812,214.34 614.172,106.34 668.262,20.332 L 680.398,1.03906 1019.94,0 V 123.551 L 922.91,183.09 C 887.148,237.969 655.195,579.422 596.672,660.762" /><path
             id="path34"
             style="fill:#213462;fill-opacity:1;fill-rule:nonzero;stroke:none"
             d="m 344.16,895.949 c 3.809,4.051 7.703,8.199 11.738,12.442 7.832,8.23 20.02,23.597 36.25,45.668 4.161,5.66 8.516,11.671 13.067,18.011 83.308,116.1 229.961,332.52 249.109,362.14 l 49.446,75.26 -93.497,57.46 166.465,-0.52 166.153,0.52 -63.899,-39.22 -5.074,-7.84 c -2.133,-3.28 -270.922,-407.26 -332.367,-492.241 -13.914,-19.258 -77.899,-42.578 -212.332,-47.457 4.902,5.098 9.832,10.34 14.941,15.777 z m -170.441,10.442 c -0.867,3.308 -1.61,6.808 -2.196,10.39 -0.996,6.168 -1.503,12.379 -1.503,18.469 v 916.05 l -79.727,52.34 h 233.691 v -902.27 c -50.089,-63.05 -85.332,-92.288 -105.488,-105.358 -10.117,-5.262 -21.269,-9.321 -34.023,-12.332 -2.227,2.371 -5.012,6.601 -7.481,12.8 z m 603.019,642.849 -258.847,0.78 v -123.53 l 69.785,-42.88 -2.813,-4.29 c -24.582,-38.03 -67.363,-99.73 -112.656,-165.05 -21.973,-31.7 -44.414,-64.06 -65.391,-94.63 v 866.81 H 0 v -122.59 l 87.207,-57.25 V 935.25 c 0,-10.5 0.8594,-21.16 2.5586,-31.691 1.0938,-6.77 2.5313,-13.399 4.375,-20.098 l 4.5117,-13.891 0.6446,-1.761 C 112.227,834.25 133.855,811.73 161.934,802.66 l 1.386,-0.441 c 5.039,-1.508 10.469,-2.508 15.946,-2.93 l 6.476,-0.437 c 4.18,-0.25 11.102,-0.633 20.41,-1.012 23.028,-0.949 46.387,-1.43 69.434,-1.43 69.676,0 130.273,4.18 180.098,12.422 78.086,12.898 128.125,35.887 152.988,70.277 59.129,81.789 292.246,430.481 329.609,487.811 l 97.049,59.56 v 123.54 l -258.592,-0.78" /></g></g></g></g></svg>